{
	"asset":{
		"generator":"Khronos glTF Blender I/O v5.2.40",
		"version":"2.0"
	},
	"scene":0,
	"scenes":[
		{
			"name":"Scene",
			"nodes":[
				0
			]
		}
	],
	"nodes":[
		{
			"mesh":0,
			"name":"glass.001"
		}
	],
	"materials":[
		{
			"doubleSided":true,
			"name":"Material.002"
		}
	],
	"meshes":[
		{
			"name":"Cylinder.001",
			"primitives":[
				{
					"attributes":{
						"POSITION":0,
						"NORMAL":1,
						"TEXCOORD_0":2,
						"TEXCOORD_1":3
					},
					"indices":4,
					"material":0
				}
			]
		}
	],
	"accessors":[
		{
			"bufferView":0,
			"componentType":5126,
			"count":3315,
			"max":[
				0.027250919491052628,
				0.10075535625219345,
				0.027250919491052628
			],
			"min":[
				-0.027250919491052628,
				0.0005486086010932922,
				-0.027250919491052628
			],
			"type":"VEC3"
		},
		{
			"bufferView":1,
			"componentType":5126,
			"count":3315,
			"type":"VEC3"
		},
		{
			"bufferView":2,
			"componentType":5126,
			"count":3315,
			"type":"VEC2"
		},
		{
			"bufferView":3,
			"componentType":5126,
			"count":3315,
			"type":"VEC2"
		},
		{
			"bufferView":4,
			"componentType":5123,
			"count":14208,
			"type":"SCALAR"
		}
	],
	"bufferViews":[
		{
			"buffer":0,
			"byteLength":39780,
			"byteOffset":0,
			"target":34962
		},
		{
			"buffer":0,
			"byteLength":39780,
			"byteOffset":39780,
			"target":34962
		},
		{
			"buffer":0,
			"byteLength":26520,
			"byteOffset":79560,
			"target":34962
		},
		{
			"buffer":0,
			"byteLength":26520,
			"byteOffset":106080,
			"target":34962
		},
		{
			"buffer":0,
			"byteLength":28416,
			"byteOffset":132600,
			"target":34963
		}
	],
	"buffers":[
		{
			"byteLength":161016,
			"uri":"glasscup.bin"
		}
	]
}
