{
	"asset":{
		"generator":"Khronos glTF Blender I/O v5.2.40",
		"version":"2.0"
	},
	"extensionsUsed":[
		"KHR_materials_specular"
	],
	"scene":0,
	"scenes":[
		{
			"name":"Scene",
			"nodes":[
				0
			]
		}
	],
	"nodes":[
		{
			"mesh":0,
			"name":"15 x 15 Sink"
		}
	],
	"materials":[
		{
			"doubleSided":true,
			"extensions":{
				"KHR_materials_specular":{
					"specularFactor":0
				}
			},
			"name":"R0.627451002597809,G0.627451002597809,B0.627451002597809",
			"pbrMetallicRoughness":{
				"baseColorFactor":[
					0.6274510025978088,
					0.6274510025978088,
					0.6274510025978088,
					1
				],
				"metallicFactor":0
			}
		}
	],
	"meshes":[
		{
			"name":"15 x 15 Sink",
			"primitives":[
				{
					"attributes":{
						"POSITION":0,
						"NORMAL":1
					},
					"indices":2,
					"material":0
				}
			]
		}
	],
	"accessors":[
		{
			"bufferView":0,
			"componentType":5126,
			"count":12696,
			"max":[
				7.258049964904785,
				11.848132133483887,
				7.258049964904785
			],
			"min":[
				-7.258049964904785,
				-5.8064398765563965,
				-7.258049964904785
			],
			"type":"VEC3"
		},
		{
			"bufferView":1,
			"componentType":5126,
			"count":12696,
			"type":"VEC3"
		},
		{
			"bufferView":2,
			"componentType":5123,
			"count":20427,
			"type":"SCALAR"
		}
	],
	"bufferViews":[
		{
			"buffer":0,
			"byteLength":152352,
			"byteOffset":0,
			"target":34962
		},
		{
			"buffer":0,
			"byteLength":152352,
			"byteOffset":152352,
			"target":34962
		},
		{
			"buffer":0,
			"byteLength":40854,
			"byteOffset":304704,
			"target":34963
		}
	],
	"buffers":[
		{
			"byteLength":345560,
			"uri":"sink.bin"
		}
	]
}
